<?xml version="1.0" encoding="utf-8"?>
<!-- Generator: Adobe Illustrator 26.2.1, SVG Export Plug-In . SVG Version: 6.00 Build 0)  -->
<svg version="1.1" id="レイヤー_1" xmlns="http://www.w3.org/2000/svg" xmlns:xlink="http://www.w3.org/1999/xlink" x="0px"
	 y="0px" viewBox="0 0 840 240" style="enable-background:new 0 0 840 240;" xml:space="preserve">
<style type="text/css">
	.st0{fill:#FFFFFF;}
	.st1{fill-rule:evenodd;clip-rule:evenodd;fill:url(#SVGID_1_);}
	.st2{fill-rule:evenodd;clip-rule:evenodd;fill:url(#SVGID_00000166649206428326034550000013665218953597110969_);}
	.st3{fill-rule:evenodd;clip-rule:evenodd;fill:url(#SVGID_00000005244690001912525350000008347741623187313797_);}
	.st4{fill-rule:evenodd;clip-rule:evenodd;fill:#F7B52C;}
	.st5{fill:url(#SVGID_00000070806254174901218680000003057208107358448810_);stroke:#FFFFFF;stroke-width:2;stroke-miterlimit:10;}
	.st6{fill:url(#SVGID_00000007412970530362290860000005724192776869155983_);stroke:#FFFFFF;stroke-width:2;stroke-miterlimit:10;}
	.st7{fill:url(#SVGID_00000112618631395630354050000006001833225578782120_);stroke:#FFFFFF;stroke-width:2;stroke-miterlimit:10;}
	.st8{fill:none;stroke:#FFFFFF;stroke-width:0.5;stroke-miterlimit:10;}
	.st9{fill:none;stroke:#FFFFFF;stroke-width:0.5;stroke-miterlimit:10;stroke-dasharray:1.4953,1.1962;}
</style>
<g>
	<g>
		<g>
			<path class="st0" d="M496.5,76.8V80c0,1.2,0,2.4-0.2,3.6h4.9v-6.8H496.5z"/>
			<path class="st0" d="M496.5,104.9c-0.3,1.1-0.7,2.2-1.1,3.1h4.4c-0.4-1-0.8-2.1-1.1-3.1H496.5z"/>
			<path class="st0" d="M501.8,126.4c1.4,1.4,2.9,3.4,3.5,4.7l-1.5,0.9c-0.6-1.4-2-3.4-3.4-4.8L501.8,126.4z"/>
		</g>
		<g>
			<g>
				<path d="M667.6,216.4c-0.1,0.1-0.2,0.1-0.4,0.1c-1.3,0.7-3.5,1.3-5.3,1.6c-0.3-0.4-0.8-0.9-1.2-1.2c1.8-0.2,4-0.7,5.1-1.3
					L667.6,216.4z M662.8,204.6v2.1h-1.6v-3.2h2.8c-0.3-0.5-0.7-1-1.1-1.4l1.5-0.4c0.5,0.5,1.1,1.2,1.3,1.7l-0.4,0.1h2.4v-2l2.1,0.1
					c0,0.2-0.1,0.2-0.4,0.3v1.6h2.4l-0.1-0.1c0.5-0.5,1-1.3,1.4-1.9l1.9,0.6c-0.1,0.1-0.2,0.2-0.4,0.2c-0.3,0.3-0.7,0.8-1,1.1h2.8
					v3.2h-1.6v-2.1H662.8z M671.3,215.6L671.3,215.6c1.9,0.5,4,1.1,5.3,1.6l-1.7,0.9c-1.1-0.5-3.1-1.1-5-1.6l1.2-0.9H663v-6.3h11.6
					v6.3H671.3z M673.5,208.5H664v-3h9.5V208.5z M664.6,210.2v0.8h8.4v-0.8H664.6z M664.6,212v0.9h8.4V212H664.6z M664.6,213.8v0.9
					h8.4v-0.9H664.6z M665.6,206.5v1h6.3v-1H665.6z"/>
				<path d="M687.2,216.1h6.8v1.5h-15.3v-1.5h6.7v-4h-5.8v-1.5h5.8v-2.1h-3.5v-0.9c-0.9,0.7-1.9,1.3-2.8,1.8c-0.2-0.4-0.7-1-1-1.3
					c3.1-1.6,6.1-4.4,7.4-6.7l2.3,0.1c0,0.2-0.2,0.3-0.4,0.3c1.7,2.4,4.8,4.8,7.5,6c-0.4,0.4-0.8,1-1.1,1.5
					c-0.9-0.5-1.9-1.1-2.9-1.8v1h-3.7v2.1h5.9v1.5h-5.9V216.1z M682.6,216.1c-0.2-0.9-0.9-2.2-1.6-3.2l1.4-0.6
					c0.7,1,1.4,2.3,1.7,3.1L682.6,216.1z M690.3,207c-1.6-1.2-3-2.6-3.9-3.9c-0.9,1.3-2.2,2.6-3.7,3.9H690.3z M688.4,215.5
					c0.6-0.9,1.4-2.2,1.9-3.2l1.8,0.8c-0.1,0.1-0.2,0.2-0.4,0.2c-0.5,0.9-1.3,2.1-2,2.9L688.4,215.5z"/>
				<path d="M716.4,216.6h-16.9v-2.6l2.9-3.1c5.9-6,9.1-9.9,9.1-14c0-2.7-1.3-5.1-4.8-5.1c-2.1,0-4.1,1.1-5.4,2.2l-1.3-3.1
					c1.7-1.4,4.4-2.6,7.5-2.6c5.7,0,8.2,3.9,8.2,8.1c0,5.1-3.5,9.4-8.3,14.2l-2.3,2.3v0.1h11.2V216.6z"/>
				<path d="M719.9,202.7c0-9.1,3.4-14.4,9.2-14.4c5.9,0,8.8,5.7,8.8,14.1c0,9.4-3.4,14.6-9.1,14.6C723,217,719.9,211.2,719.9,202.7
					z M733.6,202.5c0-6.6-1.4-10.9-4.7-10.9c-2.8,0-4.7,3.9-4.7,10.9c0,6.9,1.7,11,4.7,11C732.5,213.5,733.6,208.3,733.6,202.5z"/>
				<path d="M740.7,202.7c0-9.1,3.4-14.4,9.2-14.4c5.9,0,8.8,5.7,8.8,14.1c0,9.4-3.4,14.6-9.1,14.6
					C743.8,217,740.7,211.2,740.7,202.7z M754.4,202.5c0-6.6-1.4-10.9-4.7-10.9c-2.8,0-4.7,3.9-4.7,10.9c0,6.9,1.7,11,4.7,11
					C753.3,213.5,754.4,208.3,754.4,202.5z"/>
				<path d="M781.3,204.5h-8.6c-0.1,0.1-0.2,0.2-0.4,0.2c-0.1,1-0.1,2.1-0.2,3.1h6.1l0.4,0l1,0.1c0,0.2,0,0.4-0.1,0.5
					c-0.3,5.9-0.6,8.1-1.3,8.8c-0.5,0.6-1.2,0.8-2.9,0.8c-0.6,0-1.3,0-2-0.1c0-0.5-0.3-1.2-0.6-1.7c1.3,0.1,2.6,0.1,3.1,0.1
					c0.4,0,0.6,0,0.9-0.2c0.5-0.5,0.8-2.4,1-6.8h-5.8c-0.5,3.4-1.9,6.7-5.5,8.7c-0.3-0.4-0.8-1-1.2-1.4c5.1-2.6,5.3-7.8,5.4-12.3h-5
					v-1.7h15.8V204.5z"/>
				<path d="M799.2,202.7V216c0,1.9-0.9,2.1-4.2,2.1c-0.1-0.5-0.4-1.2-0.6-1.7c0.6,0,1.2,0,1.6,0c1.5,0,1.5,0,1.5-0.5v-5H786v7.2
					h-1.7v-15.4H799.2z M786,204.4v5h4.8v-5H786z M792.5,209.3h5.1v-5h-5.1V209.3z"/>
			</g>
		</g>
		<g>
			<linearGradient id="SVGID_1_" gradientUnits="userSpaceOnUse" x1="663.1973" y1="89.1299" x2="813.8526" y2="89.1299">
				<stop  offset="0" style="stop-color:#EBEBEB"/>
				<stop  offset="5.379478e-02" style="stop-color:#E8E8E8"/>
				<stop  offset="9.595351e-02" style="stop-color:#DEDEDE"/>
				<stop  offset="0.1342" style="stop-color:#CECECD"/>
				<stop  offset="0.1701" style="stop-color:#B7B6B6"/>
				<stop  offset="0.2043" style="stop-color:#9A9898"/>
				<stop  offset="0.2374" style="stop-color:#767372"/>
				<stop  offset="0.2689" style="stop-color:#4C4847"/>
				<stop  offset="0.2781" style="stop-color:#3E3A39"/>
				<stop  offset="0.3009" style="stop-color:#555252"/>
				<stop  offset="0.3352" style="stop-color:#727070"/>
				<stop  offset="0.3713" style="stop-color:#898788"/>
				<stop  offset="0.4095" style="stop-color:#999899"/>
				<stop  offset="0.4513" style="stop-color:#A2A2A3"/>
				<stop  offset="0.5033" style="stop-color:#A5A5A6"/>
				<stop  offset="0.5759" style="stop-color:#AAAAAA"/>
				<stop  offset="0.656" style="stop-color:#B7B7B8"/>
				<stop  offset="0.7396" style="stop-color:#CDCDCD"/>
				<stop  offset="0.8252" style="stop-color:#EBEBEC"/>
				<stop  offset="0.8709" style="stop-color:#FFFFFF"/>
				<stop  offset="1" style="stop-color:#939494"/>
			</linearGradient>
			<path class="st1" d="M737.7,121.5c3.7,18,15.4,27,31.7,31.2c0,4.9,0,9.5,0,14.5c-28,0-55.7,0-83.7,0c-0.2-1.4-0.3-2.5-0.4-3.6
				c-1-7,0.5-11.5,8.6-14c12.8-4,20.4-13.9,23.4-27.9c-18.6-6.5-30.3-20.4-39-37.4c-11-21.6-13.7-44.6-11.8-68.4
				c0.1-1.8,3.1-4.7,4.8-4.7c37.4-0.3,74.8-0.3,112.2-0.1c1.7,0,4.8,2.4,4.9,3.9c2.5,30.5-2.5,59.2-21.2,84.5
				C759.9,109.6,750.4,117.2,737.7,121.5z"/>
			
				<linearGradient id="SVGID_00000178175388314891112120000015401119171385291409_" gradientUnits="userSpaceOnUse" x1="663.199" y1="51.2116" x2="813.8524" y2="51.2116">
				<stop  offset="0" style="stop-color:#EBEBEB"/>
				<stop  offset="5.379478e-02" style="stop-color:#E8E8E8"/>
				<stop  offset="9.595351e-02" style="stop-color:#DEDEDE"/>
				<stop  offset="0.1342" style="stop-color:#CECECD"/>
				<stop  offset="0.1701" style="stop-color:#B7B6B6"/>
				<stop  offset="0.2043" style="stop-color:#9A9898"/>
				<stop  offset="0.2374" style="stop-color:#767372"/>
				<stop  offset="0.2689" style="stop-color:#4C4847"/>
				<stop  offset="0.2781" style="stop-color:#3E3A39"/>
				<stop  offset="0.3009" style="stop-color:#555252"/>
				<stop  offset="0.3352" style="stop-color:#727070"/>
				<stop  offset="0.3713" style="stop-color:#898788"/>
				<stop  offset="0.4095" style="stop-color:#999899"/>
				<stop  offset="0.4513" style="stop-color:#A2A2A3"/>
				<stop  offset="0.5033" style="stop-color:#A5A5A6"/>
				<stop  offset="0.5759" style="stop-color:#AAAAAA"/>
				<stop  offset="0.656" style="stop-color:#B7B7B8"/>
				<stop  offset="0.7396" style="stop-color:#CDCDCD"/>
				<stop  offset="0.8252" style="stop-color:#EBEBEC"/>
				<stop  offset="0.8709" style="stop-color:#FFFFFF"/>
				<stop  offset="1" style="stop-color:#939494"/>
			</linearGradient>
			<path style="fill-rule:evenodd;clip-rule:evenodd;fill:url(#SVGID_00000178175388314891112120000015401119171385291409_);" d="
				M657.6,16c0,5,0,9.1,0,14.1c-4.1-1-7.8-1.9-11.5-2.7c-10.2-2.1-14.7,2.1-13.1,12.4c2.1,13.5,10.2,23.4,22,28.6
				c9.8,4.3,12.9,12,16,20.7c-22.8-2-46.8-22.6-51.1-44c-4.6-23,7.2-35.2,30-30.9C652.4,14.6,654.8,15.3,657.6,16z"/>
			
				<linearGradient id="SVGID_00000029036796875586645260000002943329221159009192_" gradientUnits="userSpaceOnUse" x1="663.2004" y1="51.6562" x2="813.8512" y2="51.6562">
				<stop  offset="0" style="stop-color:#EBEBEB"/>
				<stop  offset="5.379478e-02" style="stop-color:#E8E8E8"/>
				<stop  offset="9.595351e-02" style="stop-color:#DEDEDE"/>
				<stop  offset="0.1342" style="stop-color:#CECECD"/>
				<stop  offset="0.1701" style="stop-color:#B7B6B6"/>
				<stop  offset="0.2043" style="stop-color:#9A9898"/>
				<stop  offset="0.2374" style="stop-color:#767372"/>
				<stop  offset="0.2689" style="stop-color:#4C4847"/>
				<stop  offset="0.2781" style="stop-color:#3E3A39"/>
				<stop  offset="0.3009" style="stop-color:#555252"/>
				<stop  offset="0.3352" style="stop-color:#727070"/>
				<stop  offset="0.3713" style="stop-color:#898788"/>
				<stop  offset="0.4095" style="stop-color:#999899"/>
				<stop  offset="0.4513" style="stop-color:#A2A2A3"/>
				<stop  offset="0.5033" style="stop-color:#A5A5A6"/>
				<stop  offset="0.5759" style="stop-color:#AAAAAA"/>
				<stop  offset="0.656" style="stop-color:#B7B7B8"/>
				<stop  offset="0.7396" style="stop-color:#CDCDCD"/>
				<stop  offset="0.8252" style="stop-color:#EBEBEC"/>
				<stop  offset="0.8709" style="stop-color:#FFFFFF"/>
				<stop  offset="1" style="stop-color:#939494"/>
			</linearGradient>
			<path style="fill-rule:evenodd;clip-rule:evenodd;fill:url(#SVGID_00000029036796875586645260000002943329221159009192_);" d="
				M797.6,30.1c0-4.9,0-9.1,0-15c6.6-0.6,13.7-2.3,20.5-1.6c11.2,1.1,17.6,9.1,18.1,21.1c0.5,10.3-2.5,19.7-8.6,28
				c-10.7,14.7-25.6,22.9-44.1,27.3c4-9.1,6.4-17.2,16.4-21.4c11.4-4.9,19.3-14.3,21.9-27.1c2.4-11.8-2.2-16.3-13.9-13.7
				C804.8,28.4,801.7,29.2,797.6,30.1z"/>
		</g>
		<g>
			<path class="st4" d="M737.7,121.5c3.7,18,15.4,27,31.7,31.2c0,4.9,0,9.5,0,14.5c-28,0-55.7,0-83.7,0c-0.2-1.4-0.3-2.5-0.4-3.6
				c-1-7,0.5-11.5,8.6-14c12.8-4,20.4-13.9,23.4-27.9c-18.6-6.5-30.3-20.4-39-37.4c-11-21.6-13.7-44.6-11.8-68.4
				c0.1-1.8,3.1-4.7,4.8-4.7c37.4-0.3,74.8-0.3,112.2-0.1c1.7,0,4.8,2.4,4.9,3.9c2.5,30.5-2.5,59.2-21.2,84.5
				C759.9,109.6,750.4,117.2,737.7,121.5z"/>
			<path class="st4" d="M657.6,16c0,5,0,9.1,0,14.1c-4.1-1-7.8-1.9-11.5-2.7c-10.2-2.1-14.7,2.1-13.1,12.4
				c2.1,13.5,10.2,23.4,22,28.6c9.8,4.3,12.9,12,16,20.7c-22.8-2-46.8-22.6-51.1-44c-4.6-23,7.2-35.2,30-30.9
				C652.4,14.6,654.8,15.3,657.6,16z"/>
			<path class="st4" d="M797.6,30.1c0-4.9,0-9.1,0-15c6.6-0.6,13.7-2.3,20.5-1.6c11.2,1.1,17.6,9.1,18.1,21.1
				c0.5,10.3-2.5,19.7-8.6,28c-10.7,14.7-25.6,22.9-44.1,27.3c4-9.1,6.4-17.2,16.4-21.4c11.4-4.9,19.3-14.3,21.9-27.1
				c2.4-11.8-2.2-16.3-13.9-13.7C804.8,28.4,801.7,29.2,797.6,30.1z"/>
		</g>
		<g>
			<g>
				<polygon class="st0" points="704,46.8 704,46.8 698.2,43.5 710.5,36.4 710.5,47.8 719.3,52.9 719.3,50.7 719.3,50.7 719.3,21.1 
					680.5,43.5 759.9,89 768.7,83.9 				"/>
			</g>
			<g>
				<polygon class="st0" points="710.5,78.6 710.5,78.6 710.5,80.1 698.2,73 708.1,67.3 708.1,62 703.9,59.6 680.5,73 719.3,95.4 
					719.3,68.4 710.5,63.4 				"/>
			</g>
			<g>
				<polygon class="st0" points="768.6,32.7 759.7,27.6 721.7,49.4 721.7,54.2 726.4,56.9 				"/>
			</g>
		</g>
	</g>
	
		<linearGradient id="SVGID_00000106130705696333478270000016711667779361027201_" gradientUnits="userSpaceOnUse" x1="429.2284" y1="107.8519" x2="604.0348" y2="107.8519">
		<stop  offset="0" style="stop-color:#910782"/>
		<stop  offset="1" style="stop-color:#1D2087"/>
	</linearGradient>
	
		<polygon style="fill:url(#SVGID_00000106130705696333478270000016711667779361027201_);stroke:#FFFFFF;stroke-width:2;stroke-miterlimit:10;" points="
		442.3,175 429.2,107.9 442.3,40.7 590.9,40.7 604,107.9 590.9,175 	"/>
	<g>
		<path class="st0" d="M488.3,104.9c1.5,0.6,3.5,1.6,4.5,2.4l-1.3,1.9c-0.9-0.8-2.9-1.9-4.4-2.6L488.3,104.9z M487.7,118.9
			c1.2-1.9,2.9-5,4.2-7.8l1.7,1.4c-1.2,2.6-2.6,5.4-3.7,7.3c0.1,0.1,0.1,0.3,0.1,0.4c0,0.1,0,0.2-0.1,0.3L487.7,118.9z M489.6,98.4
			c1.5,0.6,3.4,1.7,4.4,2.5l-1.3,1.9c-0.9-0.9-2.8-2-4.3-2.7L489.6,98.4z M509.6,111.6h-6.3c1.2,3.3,3.4,5.9,6.6,7.2
			c-0.5,0.5-1.2,1.4-1.6,2c-3.4-1.6-5.7-4.5-7-8.4c-0.8,3.2-2.6,6.2-6.8,8.4c-0.4-0.5-1.3-1.3-1.9-1.6c4-2,5.7-4.7,6.5-7.6h-5.3
			v-2.1h5.7c0.1-1,0.1-1.9,0.1-2.9v-2.3h-4.4v-2.2h4.4v-3.9l2.8,0.2c0,0.2-0.2,0.3-0.6,0.4v3.4h5.7v7.3h2.1V111.6z M501.8,104.3v2.3
			c0,1,0,1.9-0.1,2.9h3.6v-5.1H501.8z"/>
		<path class="st0" d="M535.4,108.5h-2.5c0.8,1.3,1.9,2.4,3,3.1c-0.5,0.4-1.2,1.2-1.5,1.8c-0.4-0.3-0.7-0.6-1.1-0.9
			c0,0.1,0,0.3,0,0.4c-0.2,4.6-0.5,6.3-1.1,7c-0.5,0.6-1.1,0.7-2.7,0.7c-0.4,0-0.9,0-1.3,0c0-0.6-0.2-1.4-0.5-1.9
			c0.9,0.1,1.7,0.1,2,0.1c0.3,0,0.5,0,0.7-0.2c0.3-0.4,0.5-1.6,0.7-4.5h-3c-0.6,3-2,5.3-5.6,6.8c-0.3-0.5-0.8-1.3-1.3-1.7
			c2.9-1.1,4.2-2.8,4.8-5.1h-3v-1.6c-0.4,0.4-0.9,0.7-1.3,1.1c-0.2-0.3-0.6-0.9-0.9-1.3v6.1c0,2.3-1,2.5-3.9,2.5
			c-0.1-0.6-0.3-1.5-0.6-2.1c0.9,0,1.8,0,2,0c0.3,0,0.4-0.1,0.4-0.4v-5.6h-2.6c-0.2,2.9-0.6,5.8-1.6,8.1c-0.4-0.3-1.3-0.8-1.8-1
			c1.4-3.4,1.5-8.3,1.5-11.9v-8.8h6.4v12.5c1.2-0.8,2.1-1.9,2.9-3.1h-2.4v-1.9h3.4c0.3-0.7,0.6-1.4,0.8-2.2h-3.6v-1.9h4.1
			c0.3-1.3,0.5-2.8,0.7-4.3l2.5,0.4c0,0.2-0.2,0.3-0.5,0.4c-0.2,1.3-0.4,2.5-0.6,3.6h2.5l-0.3-0.1c0.6-1.1,1.3-2.7,1.7-3.9l2.5,0.9
			c-0.1,0.2-0.3,0.2-0.6,0.2c-0.4,0.8-1,2-1.6,2.9h2.8v1.9h-3.9c0.2,0.8,0.5,1.5,0.8,2.2h3.5V108.5z M516.3,107.8c0,0.8,0,1.7,0,2.6
			h2.5v-3.7h-2.4V107.8z M518.7,101.1h-2.4v3.5h2.4V101.1z M523.8,98.6c0.6,0.9,1.2,2.2,1.4,3l-1.8,0.7c-0.2-0.8-0.7-2.1-1.3-3.1
			L523.8,98.6z M532.2,112.1l0.9,0.1c-1-1-1.8-2.3-2.5-3.7H526c-0.7,1.4-1.6,2.6-2.6,3.6h3c0.1-0.8,0.1-1.6,0.2-2.5l2.6,0.2
			c0,0.2-0.2,0.3-0.6,0.4c0,0.6-0.1,1.3-0.2,1.9h3.3L532.2,112.1z M529.9,106.6c-0.3-0.7-0.5-1.5-0.7-2.2h-1.6
			c-0.2,0.8-0.5,1.5-0.7,2.2H529.9z"/>
		<path class="st0" d="M551.6,116.6h-5.3v4.1h-2.2v-4.1h-5.4v-2h5.4v-1.8h-4.4V104h11.1v8.8h-4.5v1.8h5.3V116.6z M540.6,98.7
			c0.8,1.2,1.5,2.9,1.7,4l-2,0.7c-0.2-1.1-0.9-2.8-1.6-4.1L540.6,98.7z M541.7,105.7v1.8h2.6v-1.8H541.7z M541.7,109.2v1.8h2.6v-1.8
			H541.7z M545.2,98.3c0.6,1.3,1,3,1.2,4.1l-2,0.5c-0.1-1.1-0.5-2.8-1-4.2L545.2,98.3z M548.8,107.5v-1.8h-2.6v1.8H548.8z
			 M548.8,111v-1.8h-2.6v1.8H548.8z M552.2,99.2c-0.1,0.2-0.3,0.2-0.6,0.2c-0.6,1.3-1.6,3.2-2.4,4.3c0,0-1.8-0.7-1.8-0.7
			c0.8-1.3,1.7-3.3,2.2-4.7L552.2,99.2z M555.9,107c0.2,1.9,0.4,3.6,0.7,5.2c0.8-1.4,1.5-2.9,2.1-4.5l2.5,0.8
			c-0.1,0.2-0.3,0.3-0.6,0.3c-0.9,2.3-2,4.4-3.4,6.3c0.6,2.1,1.3,3.4,2.1,3.4c0.5,0,0.8-1.3,0.9-4.1c0.5,0.5,1.2,1.1,1.7,1.3
			c-0.4,3.9-1.1,5-2.8,5c-1.5,0-2.6-1.4-3.5-3.7c-1.3,1.3-2.7,2.5-4.3,3.5c-0.3-0.5-1-1.2-1.4-1.7c1.9-1,3.5-2.5,5-4.2
			c-0.5-2.1-0.9-4.7-1.2-7.4l-2.3,0.3l-0.3-2.1l2.4-0.3c-0.1-2.3-0.2-4.6-0.2-6.9l2.8,0.2c0,0.2-0.2,0.4-0.6,0.4c0,2,0,4.1,0.2,6.1
			l5.5-0.7l0.3,2.1L555.9,107z M558.3,98.6c1.1,1.3,2.2,2.9,2.7,4.1l-1.9,1.1c-0.4-1.2-1.5-2.9-2.6-4.2L558.3,98.6z"/>
	</g>
	
		<linearGradient id="SVGID_00000056403548155289568530000012612024832855032754_" gradientUnits="userSpaceOnUse" x1="167.0983" y1="107.8519" x2="450.3031" y2="107.8519">
		<stop  offset="0" style="stop-color:#E95230"/>
		<stop  offset="1" style="stop-color:#920000"/>
	</linearGradient>
	
		<polygon style="fill:url(#SVGID_00000056403548155289568530000012612024832855032754_);stroke:#FFFFFF;stroke-width:2;stroke-miterlimit:10;" points="
		150.6,175 137.6,107.9 150.6,40.7 445.2,40.7 458.3,107.9 445.2,175 	"/>
	<g>
		<path class="st0" d="M208.1,101.1v17.5h-4.8v-11.5c-0.8,0.6-1.5,1.1-2.3,1.4c-0.7,0.4-1.6,0.7-2.8,1.1v-3.9
			c1.6-0.5,2.9-1.2,3.8-1.9c0.9-0.7,1.6-1.6,2.1-2.7H208.1z"/>
		<path class="st0" d="M219.1,99.6h20.2v20.9h-2.4v-1.6h-15.5v1.6h-2.3V99.6z M221.4,116.7h15.5v-14.8h-15.5V116.7z M224.5,105.1
			h9.2v8.2h-9.2V105.1z M231.6,111.5V107h-5v4.5H231.6z"/>
		<path class="st0" d="M259.5,116.6h-5.3v4.1H252v-4.1h-5.4v-2h5.4v-1.8h-4.4V104h11.1v8.8h-4.5v1.8h5.3V116.6z M248.6,98.7
			c0.8,1.2,1.5,2.9,1.7,4l-2,0.7c-0.2-1.1-0.9-2.8-1.6-4.1L248.6,98.7z M249.6,105.7v1.8h2.6v-1.8H249.6z M249.6,109.2v1.8h2.6v-1.8
			H249.6z M253.1,98.3c0.6,1.3,1,3,1.2,4.1l-2,0.5c-0.1-1.1-0.5-2.8-1-4.2L253.1,98.3z M256.8,107.5v-1.8h-2.6v1.8H256.8z
			 M256.8,111v-1.8h-2.6v1.8H256.8z M260.1,99.2c-0.1,0.2-0.3,0.2-0.6,0.2c-0.6,1.3-1.6,3.2-2.4,4.3c0,0-1.8-0.7-1.8-0.7
			c0.8-1.3,1.7-3.3,2.2-4.7L260.1,99.2z M263.8,107c0.2,1.9,0.4,3.6,0.7,5.2c0.8-1.4,1.5-2.9,2.1-4.5l2.5,0.8
			c-0.1,0.2-0.3,0.3-0.6,0.3c-0.9,2.3-2,4.4-3.4,6.3c0.6,2.1,1.3,3.4,2.1,3.4c0.5,0,0.8-1.3,0.9-4.1c0.5,0.5,1.2,1.1,1.7,1.3
			c-0.4,3.9-1.1,5-2.8,5c-1.5,0-2.6-1.4-3.5-3.7c-1.3,1.3-2.7,2.5-4.3,3.5c-0.3-0.5-1-1.2-1.4-1.7c1.9-1,3.5-2.5,5-4.2
			c-0.5-2.1-0.9-4.7-1.2-7.4l-2.3,0.3l-0.3-2.1l2.4-0.3c-0.1-2.3-0.2-4.6-0.2-6.9l2.8,0.2c0,0.2-0.2,0.4-0.6,0.4c0,2,0,4.1,0.2,6.1
			l5.5-0.7l0.3,2.1L263.8,107z M266.3,98.6c1.1,1.3,2.2,2.9,2.7,4.1l-1.9,1.1c-0.4-1.2-1.5-2.9-2.6-4.2L266.3,98.6z"/>
	</g>
	
		<linearGradient id="SVGID_00000062904441279235568740000006206898364435605148_" gradientUnits="userSpaceOnUse" x1="4.8087" y1="107.8519" x2="166.5248" y2="107.8519">
		<stop  offset="0" style="stop-color:#FFF11D"/>
		<stop  offset="1" style="stop-color:#E96B00"/>
	</linearGradient>
	
		<polygon style="fill:url(#SVGID_00000062904441279235568740000006206898364435605148_);stroke:#FFFFFF;stroke-width:2;stroke-miterlimit:10;" points="
		4.8,175 17.2,107.9 4.8,40.7 153.4,40.7 166.5,107.9 153.4,175 	"/>
	<g>
		<path class="st0" d="M43.3,103.4v4c0,3.8-0.4,9.5-2.5,13.3c-0.4-0.4-1.4-1.1-1.9-1.3c2-3.5,2.2-8.5,2.2-12v-6.2h8.8v-3l2.9,0.2
			c0,0.2-0.2,0.3-0.6,0.4v2.4h9.1v2.2H43.3z M47.3,110.6c-0.3,2.7-0.8,5.9-2,7.9l-2-0.9c1.2-1.9,1.7-4.8,2-7.4L47.3,110.6z
			 M50.9,117.5c0,0.8,0.1,1,0.9,1h2.5c0.8,0,0.9-0.6,1-4.1c0.5,0.4,1.4,0.8,2,0.9c-0.2,4.1-0.8,5.2-2.9,5.2h-3c-2.3,0-2.8-0.7-2.8-3
			v-8.7l2.8,0.2c0,0.2-0.2,0.3-0.6,0.4V117.5z M50.4,103.6c2,0.9,4.7,2.4,6,3.6l-1.6,1.7c-1.3-1.1-3.8-2.7-5.9-3.8L50.4,103.6z
			 M59.5,118.6c-0.3-2.1-1.7-5.4-3.1-7.9l2-0.8c1.5,2.4,2.9,5.6,3.3,7.8L59.5,118.6z"/>
		<path class="st0" d="M87.1,112.7h-4.8c1.5,1.1,3.5,2,5.5,2.5c-0.5,0.4-1.1,1.3-1.5,1.8c-1.1-0.4-2.3-0.9-3.3-1.5
			c-0.5,5-0.9,5.3-3.9,5.3c-0.5,0-1.1,0-1.7,0c0-0.5-0.3-1.3-0.6-1.8c1.1,0.1,2.1,0.1,2.5,0.1c0.4,0,0.6,0,0.8-0.2
			c0.3-0.2,0.5-1,0.6-2.5h-5.1c-1,2.1-2.9,3.6-7.3,4.5c-0.2-0.5-0.7-1.3-1.1-1.7c3.3-0.6,5-1.5,6-2.8h-4.4v-0.9
			c-0.9,0.5-1.8,0.9-2.9,1.3c-0.2-0.5-0.9-1.3-1.3-1.6c2-0.6,3.7-1.5,5-2.4h-4.4v-1.8h6.4c0.3-0.4,0.6-0.8,0.8-1.2h-4V103h15.6v6.7
			h-8.8c-0.1,0.1-0.2,0.2-0.5,0.2c-0.2,0.3-0.4,0.7-0.6,1h12.9V112.7z M70.9,102.7v-1h-5.5v-1.8h5.5v-1.6l2.8,0.2
			c0,0.2-0.2,0.3-0.6,0.4v1.1H79v-1.6l2.8,0.2c0,0.2-0.2,0.3-0.5,0.4v1h5.6v1.8h-5.6v1H79v-1h-5.9v1H70.9z M81.3,114.6l0.3,0
			c-0.8-0.6-1.5-1.2-2.1-1.9h-6.9c-0.7,0.7-1.5,1.3-2.4,1.9h3.8c0.1-0.5,0.3-1.1,0.3-1.7l2.5,0.3c0,0.2-0.2,0.3-0.5,0.3
			c-0.1,0.4-0.1,0.7-0.2,1.1H81.3z M70.6,104.4v1.3h11.3v-1.3H70.6z M70.6,107v1.3h11.3V107H70.6z"/>
		<path class="st0" d="M102.8,112.8v2H90.7v-2H93v-9.6h-2v-2h2v-2.8l2.6,0.2c0,0.2-0.2,0.3-0.6,0.4v2.3h3.8v-2.8l2.6,0.2
			c0,0.2-0.2,0.3-0.5,0.4v2.3h1.7v2H101v9.6H102.8z M96.4,116.1c-0.1,0.2-0.2,0.2-0.6,0.2c-0.8,1.6-2.1,3.3-3.4,4.4
			c-0.4-0.4-1.2-1-1.7-1.3c1.2-1,2.5-2.6,3.2-4.2L96.4,116.1z M98.9,103.3h-3.8v1.9h3.8V103.3z M95.1,106.9v2h3.8v-2H95.1z
			 M95.1,110.7v2.1h3.8v-2.1H95.1z M112.5,99.3v18.7c0,2.3-0.9,2.7-4.8,2.6c-0.1-0.6-0.4-1.6-0.7-2.2c0.7,0,1.4,0,2,0
			c1.1,0,1.3,0,1.3-0.5v-5.5h-4.6c-0.3,3-1.1,6-2.8,8.3c-0.4-0.4-1.3-1.1-1.8-1.3l0.2-0.3l-1,0.6c-0.5-1-1.6-2.6-2.6-3.7l1.8-1
			c0.8,0.9,1.8,2.2,2.4,3.1c1.7-3.1,1.8-7,1.8-10.1v-8.9H112.5z M105.9,108.2c0,0.7,0,1.5,0,2.3h4.4v-3.5h-4.4V108.2z M110.3,101.4
			h-4.4v3.5h4.4V101.4z"/>
		<path class="st0" d="M126.8,107.7H120v13h-2.3V99.2h9V107.7z M124.6,100.9H120v1.7h4.6V100.9z M120,106h4.6v-1.8H120V106z
			 M138,99.2v18.7c0,2.7-1.2,2.8-5.4,2.8c-0.1-0.6-0.4-1.6-0.7-2.2h-6.6v1.2h-2.1v-10.3h9.2v9c0.6,0,1.2,0,1.7,0
			c1.6,0,1.6,0,1.6-0.6v-10.1h-7v-8.6H138z M130.3,111.1h-5v1.9h5V111.1z M125.3,116.7h5v-2h-5V116.7z M135.7,100.9H131v1.7h4.8
			V100.9z M131,106.1h4.8v-1.9H131V106.1z"/>
	</g>
	<g>
		<g>
			<line class="st8" x1="299.2" y1="40.7" x2="299.4" y2="41.5"/>
			<polyline class="st9" points="299.6,42.6 312.3,107.9 299.5,174.1 			"/>
			<line class="st8" x1="299.4" y1="174.7" x2="299.2" y2="175.5"/>
		</g>
	</g>
	<g>
		<path class="st0" d="M355.3,118.6H341c0.2-1.4,0.7-2.7,1.5-4c0.8-1.2,2.4-2.7,4.7-4.4c1.4-1,2.3-1.8,2.7-2.4
			c0.4-0.5,0.6-1.1,0.6-1.5c0-0.5-0.2-1-0.6-1.3c-0.4-0.4-0.9-0.6-1.5-0.6c-0.6,0-1.1,0.2-1.5,0.6c-0.4,0.4-0.6,1.1-0.8,2l-4.8-0.4
			c0.2-1.3,0.5-2.4,1-3.2c0.5-0.8,1.2-1.3,2.1-1.7c0.9-0.4,2.2-0.6,3.8-0.6c1.7,0,3,0.2,3.9,0.6c0.9,0.4,1.7,1,2.2,1.8
			c0.5,0.8,0.8,1.7,0.8,2.7c0,1-0.3,2.1-0.9,3c-0.6,1-1.7,2-3.4,3.1c-1,0.7-1.6,1.1-1.9,1.4c-0.3,0.3-0.7,0.6-1.1,1h7.5V118.6z"/>
		<path class="st0" d="M363.2,99.6h20.2v20.9H381v-1.6h-15.5v1.6h-2.3V99.6z M365.5,116.7H381v-14.8h-15.5V116.7z M368.6,105.1h9.2
			v8.2h-9.2V105.1z M375.6,111.5V107h-5v4.5H375.6z"/>
		<path class="st0" d="M403.6,116.6h-5.3v4.1h-2.2v-4.1h-5.4v-2h5.4v-1.8h-4.4V104h11.1v8.8h-4.5v1.8h5.3V116.6z M392.6,98.7
			c0.8,1.2,1.5,2.9,1.7,4l-2,0.7c-0.2-1.1-0.9-2.8-1.6-4.1L392.6,98.7z M393.7,105.7v1.8h2.5v-1.8H393.7z M393.7,109.2v1.8h2.5v-1.8
			H393.7z M397.2,98.3c0.6,1.3,1,3,1.2,4.1l-2,0.5c-0.1-1.1-0.5-2.8-1-4.2L397.2,98.3z M400.8,107.5v-1.8h-2.6v1.8H400.8z
			 M400.8,111v-1.8h-2.6v1.8H400.8z M404.2,99.2c-0.1,0.2-0.3,0.2-0.6,0.2c-0.6,1.3-1.6,3.2-2.4,4.3c0,0-1.8-0.7-1.8-0.7
			c0.8-1.3,1.7-3.3,2.2-4.7L404.2,99.2z M407.9,107c0.2,1.9,0.4,3.6,0.7,5.2c0.8-1.4,1.5-2.9,2.1-4.5l2.6,0.8
			c-0.1,0.2-0.3,0.3-0.6,0.3c-0.9,2.3-2,4.4-3.4,6.3c0.6,2.1,1.3,3.4,2.1,3.4c0.5,0,0.8-1.3,0.9-4.1c0.5,0.5,1.2,1.1,1.7,1.3
			c-0.4,3.9-1.1,5-2.8,5c-1.5,0-2.6-1.4-3.5-3.7c-1.3,1.3-2.7,2.5-4.3,3.5c-0.3-0.5-1-1.2-1.4-1.7c1.9-1,3.5-2.5,5-4.2
			c-0.5-2.1-0.9-4.7-1.2-7.4l-2.3,0.3l-0.3-2.1l2.4-0.3c-0.1-2.3-0.2-4.6-0.2-6.9l2.8,0.2c0,0.2-0.2,0.4-0.6,0.4c0,2,0,4.1,0.2,6.1
			l5.5-0.7l0.3,2.1L407.9,107z M410.3,98.6c1.1,1.3,2.2,2.9,2.7,4.1l-1.9,1.1c-0.4-1.2-1.5-2.9-2.6-4.2L410.3,98.6z"/>
	</g>
</g>
</svg>
